<?xml version="1.0" encoding="UTF-8" standalone="no"?>
<!DOCTYPE svg PUBLIC "-//W3C//DTD SVG 1.1//EN"
 "http://www.w3.org/Graphics/SVG/1.1/DTD/svg11.dtd">
<!-- Generated by graphviz version 2.37.20140115.0545 (20140115.0545)
 -->
<!-- Title: G Pages: 1 -->
<svg width="188pt" height="188pt"
 viewBox="0.00 0.00 188.00 188.00" xmlns="http://www.w3.org/2000/svg" xmlns:xlink="http://www.w3.org/1999/xlink">
<g id="graph0" class="graph" transform="scale(1 1) rotate(0) translate(4 184)">
<title>G</title>
<polygon fill="white" stroke="none" points="-4,4 -4,-184 184,-184 184,4 -4,4"/>
<!-- node1 -->
<g id="node1" class="node"><title>node1</title>
<polygon fill="none" stroke="black" points="95,-180 30.9877,-162 95,-144 159.012,-162 95,-180"/>
<polyline fill="none" stroke="black" points="42.5396,-165.248 42.5396,-158.752 "/>
<polyline fill="none" stroke="black" points="83.448,-147.248 106.552,-147.248 "/>
<polyline fill="none" stroke="black" points="147.46,-158.752 147.46,-165.248 "/>
<polyline fill="none" stroke="black" points="106.552,-176.752 83.448,-176.752 "/>
<text text-anchor="middle" x="95" y="-158.3" font-family="Times New Roman,serif" font-size="14.00">testStruct</text>
</g>
<!-- node2 -->
<g id="node2" class="node"><title>node2</title>
<polygon fill="none" stroke="black" points="95,-108 53.9558,-90 95,-72 136.044,-90 95,-108"/>
<text text-anchor="middle" x="95" y="-86.3" font-family="Times New Roman,serif" font-size="14.00">a &gt; 0</text>
</g>
<!-- node1&#45;&gt;node2 -->
<g id="edge1" class="edge"><title>node1&#45;&gt;node2</title>
<path fill="none" stroke="black" d="M95,-143.697C95,-135.983 95,-126.712 95,-118.112"/>
<polygon fill="black" stroke="black" points="98.5001,-118.104 95,-108.104 91.5001,-118.104 98.5001,-118.104"/>
</g>
<!-- node3 -->
<g id="node3" class="node"><title>node3</title>
<polygon fill="none" stroke="black" points="92,-36 0,-36 0,-0 92,-0 92,-36"/>
<text text-anchor="middle" x="46" y="-14.3" font-family="Times New Roman,serif" font-size="14.00">do something</text>
</g>
<!-- node2&#45;&gt;node3 -->
<g id="edge2" class="edge"><title>node2&#45;&gt;node3</title>
<path fill="none" stroke="black" d="M85.7835,-75.8335C79.571,-66.9585 71.1755,-54.965 63.6981,-44.2829"/>
<polygon fill="black" stroke="black" points="66.5593,-42.2672 57.9574,-36.082 60.8247,-46.2814 66.5593,-42.2672"/>
</g>
<!-- node4 -->
<g id="node4" class="node"><title>node4</title>
<polygon fill="none" stroke="black" points="180,-36 110,-36 110,-0 180,-0 180,-36"/>
<text text-anchor="middle" x="145" y="-14.3" font-family="Times New Roman,serif" font-size="14.00">do others</text>
</g>
<!-- node2&#45;&gt;node4 -->
<g id="edge3" class="edge"><title>node2&#45;&gt;node4</title>
<path fill="none" stroke="black" d="M104.405,-75.8335C110.744,-66.9585 119.311,-54.965 126.941,-44.2829"/>
<polygon fill="black" stroke="black" points="129.834,-46.2537 132.799,-36.082 124.138,-42.185 129.834,-46.2537"/>
</g>
</g>
</svg>
