<?xml version="1.0" encoding="UTF-8" standalone="no"?>
<!DOCTYPE svg PUBLIC "-//W3C//DTD SVG 1.1//EN"
 "http://www.w3.org/Graphics/SVG/1.1/DTD/svg11.dtd">
<!-- Generated by graphviz version 2.37.20140115.0545 (20140115.0545)
 -->
<!-- Title: G Pages: 1 -->
<svg width="555pt" height="404pt"
 viewBox="0.00 0.00 555.00 404.00" xmlns="http://www.w3.org/2000/svg" xmlns:xlink="http://www.w3.org/1999/xlink">
<g id="graph0" class="graph" transform="scale(1 1) rotate(0) translate(4 400)">
<title>G</title>
<polygon fill="white" stroke="none" points="-4,4 -4,-400 551,-400 551,4 -4,4"/>
<!-- node1 -->
<g id="node1" class="node"><title>node1</title>
<polygon fill="none" stroke="black" points="86,-396 21.9877,-378 86,-360 150.012,-378 86,-396"/>
<polyline fill="none" stroke="black" points="33.5396,-381.248 33.5396,-374.752 "/>
<polyline fill="none" stroke="black" points="74.448,-363.248 97.552,-363.248 "/>
<polyline fill="none" stroke="black" points="138.46,-374.752 138.46,-381.248 "/>
<polyline fill="none" stroke="black" points="97.552,-392.752 74.448,-392.752 "/>
<text text-anchor="middle" x="86" y="-374.3" font-family="Times New Roman,serif" font-size="14.00">testStruct</text>
</g>
<!-- node2 -->
<g id="node2" class="node"><title>node2</title>
<polygon fill="none" stroke="black" points="86,-324 44.9558,-306 86,-288 127.044,-306 86,-324"/>
<text text-anchor="middle" x="86" y="-302.3" font-family="Times New Roman,serif" font-size="14.00">a &gt; 0</text>
</g>
<!-- node1&#45;&gt;node2 -->
<g id="edge1" class="edge"><title>node1&#45;&gt;node2</title>
<path fill="none" stroke="black" d="M86,-359.697C86,-351.983 86,-342.712 86,-334.112"/>
<polygon fill="black" stroke="black" points="89.5001,-334.104 86,-324.104 82.5001,-334.104 89.5001,-334.104"/>
</g>
<!-- node3 -->
<g id="node3" class="node"><title>node3</title>
<polygon fill="none" stroke="black" points="92,-252 0,-252 0,-216 92,-216 92,-252"/>
<text text-anchor="middle" x="46" y="-230.3" font-family="Times New Roman,serif" font-size="14.00">do something</text>
</g>
<!-- node2&#45;&gt;node3 -->
<g id="edge2" class="edge"><title>node2&#45;&gt;node3</title>
<path fill="none" stroke="black" d="M78.0973,-291.17C73.1815,-282.568 66.704,-271.232 60.856,-260.998"/>
<polygon fill="black" stroke="black" points="63.7255,-258.965 55.7252,-252.019 57.6478,-262.438 63.7255,-258.965"/>
</g>
<!-- node4 -->
<g id="node4" class="node"><title>node4</title>
<polygon fill="none" stroke="black" points="180,-252 110,-252 110,-216 180,-216 180,-252"/>
<text text-anchor="middle" x="145" y="-230.3" font-family="Times New Roman,serif" font-size="14.00">do others</text>
</g>
<!-- node2&#45;&gt;node4 -->
<g id="edge3" class="edge"><title>node2&#45;&gt;node4</title>
<path fill="none" stroke="black" d="M96.548,-292.485C104.176,-283.435 114.736,-270.906 124.051,-259.855"/>
<polygon fill="black" stroke="black" points="126.785,-262.041 130.554,-252.139 121.433,-257.53 126.785,-262.041"/>
</g>
<!-- node5 -->
<g id="node5" class="node"><title>node5</title>
<polygon fill="none" stroke="black" points="291,-396 207.535,-378 291,-360 374.465,-378 291,-396"/>
<polyline fill="none" stroke="black" points="219.266,-380.53 219.266,-375.47 "/>
<polyline fill="none" stroke="black" points="279.27,-362.53 302.73,-362.53 "/>
<polyline fill="none" stroke="black" points="362.734,-375.47 362.734,-380.53 "/>
<polyline fill="none" stroke="black" points="302.73,-393.47 279.27,-393.47 "/>
<text text-anchor="middle" x="291" y="-374.3" font-family="Times New Roman,serif" font-size="14.00">TestFunction</text>
</g>
<!-- node6 -->
<g id="node6" class="node"><title>node6</title>
<polygon fill="none" stroke="black" points="291,-324 242.428,-306 291,-288 339.572,-306 291,-324"/>
<text text-anchor="middle" x="291" y="-302.3" font-family="Times New Roman,serif" font-size="14.00">a &gt;= 5</text>
</g>
<!-- node5&#45;&gt;node6 -->
<g id="edge4" class="edge"><title>node5&#45;&gt;node6</title>
<path fill="none" stroke="black" d="M291,-359.697C291,-351.983 291,-342.712 291,-334.112"/>
<polygon fill="black" stroke="black" points="294.5,-334.104 291,-324.104 287.5,-334.104 294.5,-334.104"/>
</g>
<!-- node7 -->
<g id="node7" class="node"><title>node7</title>
<polygon fill="none" stroke="black" points="305,-252 237,-252 237,-216 305,-216 305,-252"/>
<text text-anchor="middle" x="271" y="-230.3" font-family="Times New Roman,serif" font-size="14.00">do a&gt;= 5</text>
</g>
<!-- node6&#45;&gt;node7 -->
<g id="edge5" class="edge"><title>node6&#45;&gt;node7</title>
<path fill="none" stroke="black" d="M286.561,-289.465C284.263,-281.419 281.389,-271.361 278.739,-262.086"/>
<polygon fill="black" stroke="black" points="282.101,-261.115 275.989,-252.461 275.371,-263.038 282.101,-261.115"/>
</g>
<!-- node13 -->
<g id="node13" class="node"><title>node13</title>
<polygon fill="none" stroke="black" points="400,-252 336,-252 336,-216 400,-216 400,-252"/>
<text text-anchor="middle" x="368" y="-230.3" font-family="Times New Roman,serif" font-size="14.00">do a &lt; 5</text>
</g>
<!-- node6&#45;&gt;node13 -->
<g id="edge11" class="edge"><title>node6&#45;&gt;node13</title>
<path fill="none" stroke="black" d="M304.412,-292.807C314.689,-283.465 329.189,-270.283 341.748,-258.865"/>
<polygon fill="black" stroke="black" points="344.217,-261.351 349.262,-252.034 339.508,-256.171 344.217,-261.351"/>
</g>
<!-- node8 -->
<g id="node8" class="node"><title>node8</title>
<polygon fill="none" stroke="black" points="257,-180 208.428,-162 257,-144 305.572,-162 257,-180"/>
<text text-anchor="middle" x="257" y="-158.3" font-family="Times New Roman,serif" font-size="14.00">a == 5</text>
</g>
<!-- node7&#45;&gt;node8 -->
<g id="edge6" class="edge"><title>node7&#45;&gt;node8</title>
<path fill="none" stroke="black" d="M267.539,-215.697C265.933,-207.665 263.989,-197.947 262.211,-189.054"/>
<polygon fill="black" stroke="black" points="265.622,-188.264 260.229,-179.145 258.758,-189.637 265.622,-188.264"/>
</g>
<!-- node9 -->
<g id="node9" class="node"><title>node9</title>
<polygon fill="none" stroke="black" points="198,-108 126,-108 126,-72 198,-72 198,-108"/>
<text text-anchor="middle" x="162" y="-86.3" font-family="Times New Roman,serif" font-size="14.00">do a == 5</text>
</g>
<!-- node8&#45;&gt;node9 -->
<g id="edge7" class="edge"><title>node8&#45;&gt;node9</title>
<path fill="none" stroke="black" d="M241.313,-149.441C228.298,-139.851 209.387,-125.917 193.295,-114.059"/>
<polygon fill="black" stroke="black" points="195.309,-111.196 185.183,-108.082 191.157,-116.832 195.309,-111.196"/>
</g>
<!-- node10 -->
<g id="node10" class="node"><title>node10</title>
<polygon fill="none" stroke="black" points="265,-108 216.428,-90 265,-72 313.572,-90 265,-108"/>
<text text-anchor="middle" x="265" y="-86.3" font-family="Times New Roman,serif" font-size="14.00">a == 7</text>
</g>
<!-- node8&#45;&gt;node10 -->
<g id="edge8" class="edge"><title>node8&#45;&gt;node10</title>
<path fill="none" stroke="black" d="M258.896,-144.411C259.812,-136.391 260.935,-126.567 261.967,-117.542"/>
<polygon fill="black" stroke="black" points="265.46,-117.803 263.118,-107.47 258.505,-117.008 265.46,-117.803"/>
</g>
<!-- node11 -->
<g id="node11" class="node"><title>node11</title>
<polygon fill="none" stroke="black" points="253.25,-36 188.75,-36 188.75,-0 253.25,-0 253.25,-36"/>
<text text-anchor="middle" x="221" y="-14.3" font-family="Times New Roman,serif" font-size="14.00">do a==7</text>
</g>
<!-- node10&#45;&gt;node11 -->
<g id="edge9" class="edge"><title>node10&#45;&gt;node11</title>
<path fill="none" stroke="black" d="M256.307,-75.1703C250.845,-66.4799 243.629,-55.0003 237.145,-44.685"/>
<polygon fill="black" stroke="black" points="239.983,-42.6228 231.698,-36.019 234.056,-46.348 239.983,-42.6228"/>
</g>
<!-- node12 -->
<g id="node12" class="node"><title>node12</title>
<polygon fill="none" stroke="black" points="346,-36 272,-36 272,-0 346,-0 346,-36"/>
<text text-anchor="middle" x="309" y="-14.3" font-family="Times New Roman,serif" font-size="14.00">do other a</text>
</g>
<!-- node10&#45;&gt;node12 -->
<g id="edge10" class="edge"><title>node10&#45;&gt;node12</title>
<path fill="none" stroke="black" d="M273.693,-75.1703C279.155,-66.4799 286.371,-55.0003 292.855,-44.685"/>
<polygon fill="black" stroke="black" points="295.944,-46.348 298.302,-36.019 290.017,-42.6228 295.944,-46.348"/>
</g>
<!-- node14 -->
<g id="node14" class="node"><title>node14</title>
<polygon fill="none" stroke="black" points="394,-180 324.715,-162 394,-144 463.285,-162 394,-180"/>
<text text-anchor="middle" x="394" y="-158.3" font-family="Times New Roman,serif" font-size="14.00">deal with a</text>
</g>
<!-- node13&#45;&gt;node14 -->
<g id="edge12" class="edge"><title>node13&#45;&gt;node14</title>
<path fill="none" stroke="black" d="M374.427,-215.697C377.519,-207.372 381.285,-197.234 384.684,-188.082"/>
<polygon fill="black" stroke="black" points="387.978,-189.264 388.179,-178.671 381.416,-186.827 387.978,-189.264"/>
</g>
<!-- node15 -->
<g id="node15" class="node"><title>node15</title>
<polygon fill="none" stroke="black" points="428.25,-108 345.75,-108 345.75,-72 428.25,-72 428.25,-108"/>
<text text-anchor="middle" x="387" y="-86.3" font-family="Times New Roman,serif" font-size="14.00">do a == 1/2</text>
</g>
<!-- node14&#45;&gt;node15 -->
<g id="edge13" class="edge"><title>node14&#45;&gt;node15</title>
<path fill="none" stroke="black" d="M392.341,-144.411C391.571,-136.708 390.634,-127.341 389.762,-118.616"/>
<polygon fill="black" stroke="black" points="393.222,-118.049 388.745,-108.447 386.257,-118.745 393.222,-118.049"/>
</g>
<!-- node16 -->
<g id="node16" class="node"><title>node16</title>
<polygon fill="none" stroke="black" points="547,-108 447,-108 447,-72 547,-72 547,-108"/>
<text text-anchor="middle" x="497" y="-86.3" font-family="Times New Roman,serif" font-size="14.00">do other a(3/4)</text>
</g>
<!-- node14&#45;&gt;node16 -->
<g id="edge14" class="edge"><title>node14&#45;&gt;node16</title>
<path fill="none" stroke="black" d="M412.414,-148.485C426.507,-138.908 446.332,-125.435 463.246,-113.939"/>
<polygon fill="black" stroke="black" points="465.477,-116.655 471.781,-108.139 461.543,-110.866 465.477,-116.655"/>
</g>
</g>
</svg>
